<?xml version="1.0" encoding="utf-8"?>
<!-- Generator: Adobe Illustrator 22.0.1, SVG Export Plug-In . SVG Version: 6.00 Build 0)  -->
<svg version="1.1" xmlns="http://www.w3.org/2000/svg" xmlns:xlink="http://www.w3.org/1999/xlink" x="0px" y="0px" width="192.9px"
	 height="50px" viewBox="0 0 192.9 50" style="enable-background:new 0 0 192.9 50;" xml:space="preserve">
<style type="text/css">
	.st0{display:none;}
	.st1{display:inline;fill:#FFFFFF;}
	.st2{fill:#FFFFFF;}
</style>
<g id="Layer_1" class="st0">
	<path class="st1" d="M180.5,73.6c0-6.9,4.3-10.2,10.3-10.2c5.4,0,10.3,2,10.3,8.7V76h-7.6v-3.5c0-1.8-0.7-2.8-2.5-2.8
		c-2.1,0-2.5,2.1-2.5,3.2v17.5c0,0.9,0,3.2,2.3,3.2c1.8,0,2.6-0.8,2.6-2.7v-4.6h-2.8v-6.6h10.6v19.5h-7v-2.9H194
		c-1.4,2.4-3.3,3.5-6.2,3.5c-5.7,0-7.3-4.9-7.3-10.2V73.6"/>
	<path class="st1" d="M206.9,99h1.7c0.7,0,1.3-0.2,1.3-1c0-0.6-0.2-1.9-0.5-3.2l-4.6-23.8h7.6l1.9,19.9h0.1l1.9-19.9h7.3L218.8,97
		c-0.5,2.7-1.1,4.6-2.3,5.8c-1.2,1.2-2.9,1.8-6.1,1.8h-3.5V99"/>
	<path class="st1" d="M227.3,71.1h7.2v3.1h0.1c1.4-2.4,2.8-3.7,5.7-3.7c3.6,0,5.3,2.7,5.3,6.1v22.8h-7.5V80c0-1,0-2.7-1.7-2.7
		c-1.7,0-1.7,2-1.7,2.7v19.4h-7.5V71.1"/>
	<path class="st1" d="M249.9,78.5c0-3.3,1.7-8.1,9.2-8.1c7.5,0,9.2,4.7,9.2,8.1v7.8h-10.9v6.1c0,1,0,2.3,1.7,2.3
		c1.7,0,1.7-1.3,1.7-2.3v-3.5h7.5v3c0,3.3-1.7,8.1-9.2,8.1c-7.5,0-9.2-4.7-9.2-8.1V78.5 M257.4,81.1h3.4V78c0-1,0-2.3-1.7-2.3
		c-1.7,0-1.7,1.3-1.7,2.3V81.1z"/>
	<path class="st1" d="M272.5,78.5c0-3.3,1.7-8.1,9.2-8.1c7.5,0,9.2,4.7,9.2,8.1v3h-7.5V78c0-1,0-2.3-1.7-2.3c-1.7,0-1.7,1.3-1.7,2.3
		v14.4c0,1,0,2.3,1.7,2.3c1.7,0,1.7-1.3,1.7-2.3v-5.1h7.5v4.6c0,3.3-1.7,8.1-9.2,8.1c-7.5,0-9.2-4.7-9.2-8.1V78.5"/>
	<path class="st1" d="M295.2,78.5c0-3.3,1.7-8.1,9.2-8.1c7.5,0,9.2,4.7,9.2,8.1v13.3c0,3.3-1.7,8.1-9.2,8.1c-7.5,0-9.2-4.7-9.2-8.1
		V78.5 M302.6,92.4c0,1,0,2.3,1.7,2.3c1.7,0,1.7-1.3,1.7-2.3V78c0-1,0-2.3-1.7-2.3c-1.7,0-1.7,1.3-1.7,2.3V92.4z"/>
	<rect x="318.4" y="64" class="st1" width="7.5" height="35.4"/>
	<path class="st1" d="M330.4,78.5c0-3.3,1.7-8.1,9.2-8.1c7.5,0,9.2,4.7,9.2,8.1v13.3c0,3.3-1.7,8.1-9.2,8.1c-7.5,0-9.2-4.7-9.2-8.1
		V78.5 M337.8,92.4c0,1,0,2.3,1.7,2.3c1.7,0,1.7-1.3,1.7-2.3V78c0-1,0-2.3-1.7-2.3c-1.7,0-1.7,1.3-1.7,2.3V92.4z"/>
	<path class="st1" d="M371.3,96.1c0,6.5-2.9,8.5-9.1,8.5c-4.2,0-8.3-1.2-8.9-6h7.2c0,0.7,0.2,1.2,0.4,1.5c0.3,0.3,0.7,0.4,1.2,0.4
		c1,0,1.7-0.7,1.7-2v-5l-0.1-0.1c-0.8,2.2-2.7,3.4-5.1,3.4c-3.2,0-5.7-2.5-5.7-6.7V79.4c0-4.3,0.8-8.9,6-8.9c2.7,0,4,1.4,5,3.7h0.1
		v-3.1h7.3V96.1 M360.5,89.1c0,1.6,0.7,2.1,1.5,2.1c1.9,0,1.9-3.1,1.9-4v-7.4c0-2.7-1-3.5-1.9-3.5c-0.7,0-1.5,0.4-1.5,2.1V89.1z"/>
	<path class="st1" d="M377,99h1.7c0.7,0,1.3-0.2,1.3-1c0-0.6-0.2-1.9-0.5-3.2l-4.6-23.8h7.6l1.9,19.9h0.1l1.9-19.9h7.3L388.9,97
		c-0.5,2.7-1.1,4.6-2.3,5.8c-1.2,1.2-2.9,1.8-6.1,1.8H377V99"/>
	<path class="st1" d="M180.4,33.7c0-6.9,4.3-10.2,10.3-10.2c6,0,10.3,3.3,10.3,10.2v16.1c0,6.3-4,10.2-10.3,10.2
		c-6.3,0-10.3-3.9-10.3-10.2V33.7 M188.4,50.5c0,0.9,0,3.2,2.3,3.2c2.3,0,2.3-2.3,2.3-3.2V33c0-1.2,0-3.2-2.3-3.2
		c-2.3,0-2.3,2-2.3,3.2V50.5z"/>
	<path class="st1" d="M205.9,24.1h7.5v9.7h0.1c1.1-2.2,2.6-3.1,5.3-3.1c3.7,0,5.4,2.7,5.4,7.2v13.8c0,5.3-2,8.5-5.6,8.5
		c-2.4,0-4.3-1.2-5.2-3.4h-0.1v2.8h-7.5V24.1 M213.4,49.7c0,2,0,4.6,1.9,4.6c0.7,0,1.5-0.4,1.5-1.9V38.1c0-1.2-0.8-1.7-1.5-1.7
		c-1.6,0-1.9,1.9-1.9,3.6V49.7z"/>
	<path class="st1" d="M228.3,50.6h6.7v1.7c0,1.1,0.3,2.5,1.9,2.5c1.1,0,1.6-0.8,1.6-2.1c0-2.3-2.6-3.7-5-5.6c-2.4-1.9-5-4.3-5-8.4
		c0-5.4,3.4-8.2,8.3-8.2c5.2,0,8.3,2.2,8.3,7.4v1.5h-6.7V38c0-0.7,0-2.2-1.6-2.2c-1,0-1.7,0.6-1.7,1.9c0,2.3,2.9,3.6,5.1,5.6
		c2.6,2,5.1,4.1,5.1,8.4c0,2.3-0.5,8.3-8.6,8.3c-6.6,0-8.6-3-8.6-7.6V50.6"/>
	<path class="st1" d="M251.3,37h-1.9v-5.5h1.9v-6.2h7.5v6.2h1.9V37h-1.9v15.2c0,0.7,0,2.2,1,2.2h1v5.8h-3.6c-3.2,0-5.8-0.7-5.8-5.1
		V37"/>
	<path class="st1" d="M264.9,38.6c0-3.3,1.7-8.1,9.2-8.1c7.5,0,9.2,4.7,9.2,8.1v7.8h-10.9v6.1c0,1,0,2.3,1.7,2.3
		c1.7,0,1.7-1.3,1.7-2.3V49h7.5v3c0,3.3-1.7,8.1-9.2,8.1c-7.5,0-9.2-4.7-9.2-8.1V38.6 M272.4,41.2h3.4v-3.1c0-1,0-2.3-1.7-2.3
		c-1.7,0-1.7,1.3-1.7,2.3V41.2z"/>
	<path class="st1" d="M289.3,37h-1.9v-5.5h1.9v-6.2h7.5v6.2h1.9V37h-1.9v15.2c0,0.7,0,2.2,1,2.2h1v5.8h-3.6c-3.2,0-5.8-0.7-5.8-5.1
		V37"/>
	<path class="st1" d="M303.7,31.2h7.1v5h0.1c1-2.6,2-5.6,5.3-5.6v9.2h-1.7c-2.6,0-3.3,1.6-3.3,3.6v16.1h-7.5V31.2"/>
	<path class="st1" d="M320.9,24.1h7.5v5.2h-7.5V24.1z M320.9,31.2h7.5v28.3h-7.5V31.2z"/>
	<path class="st1" d="M333.3,38.6c0-3.3,1.7-8.1,9.2-8.1c7.5,0,9.2,4.7,9.2,8.1v3h-7.5v-3.5c0-1,0-2.3-1.7-2.3
		c-1.7,0-1.7,1.3-1.7,2.3v14.4c0,1,0,2.3,1.7,2.3c1.7,0,1.7-1.3,1.7-2.3v-5.1h7.5V52c0,3.3-1.7,8.1-9.2,8.1c-7.5,0-9.2-4.7-9.2-8.1
		V38.6"/>
	<path class="st1" d="M355.6,50.6h6.7v1.7c0,1.1,0.3,2.5,1.9,2.5c1.1,0,1.7-0.8,1.7-2.1c0-2.3-2.6-3.7-5-5.6c-2.4-1.9-5-4.3-5-8.4
		c0-5.4,3.4-8.2,8.3-8.2c5.2,0,8.3,2.2,8.3,7.4v1.5h-6.7V38c0-0.7,0-2.2-1.6-2.2c-1,0-1.7,0.6-1.7,1.9c0,2.3,2.9,3.6,5.1,5.6
		c2.6,2,5.1,4.1,5.1,8.4c0,2.3-0.5,8.3-8.6,8.3c-6.6,0-8.6-3-8.6-7.6V50.6"/>
	<path class="st1" d="M385.9,42.1c-0.2,0-0.2,0-0.7,0c-1.7,0-3.7,0.8-4.7,2.2c-1.3,1.8-1.6,3.4-1.6,5c0,4.1,3,8.2,8.1,8.2
		c3,0,5.8-1.3,7.4-3.4c0.8-1.1,1.7-2.8,1.7-5.3c0-3.2-1.9-5.8-4.4-5.8c-1.8,0-3.2,1.3-3.2,3c0,2.5,2.7,1,2.7,3.7
		c0,0.9-0.5,1.6-1.1,1.6c-1.3,0-2.4-2-2.4-4.4c0-3.4,2.1-6.2,4.7-6.2c3.4,0,6.2,3.8,8.4,3.8c0.9,0,1.7-1.1,1.7-2.5
		c0-2.3-2.6-0.7-2.6-3c0-0.9,0.5-1.7,1.2-1.7c1.2,0,2.2,1.8,2.2,4.1c0,2.8-1.6,5.3-3.4,5.3c-1,0-2.1-0.5-3.3-1.4l-0.1,0.1
		c0.5,1.2,0.7,2.1,0.7,3.8c0,2.4-0.7,4.4-2,6.2c-2.6,3.5-5.3,4.6-8.7,4.6c-4.3,0-6.6-1.4-8.2-3.5c-1.5-2-1.9-4.3-1.9-6
		c0-3.9,1.9-6.9,5.4-8.7c-0.9-1-1.2-1.9-1.2-3.4c0-3.3,2.9-7.5,6.9-7.5c2.8,0,5,1.6,5,3.7c0,0.9-0.6,1.8-1.3,1.8
		c-2.3,0-0.4-4.3-3.9-4.3c-2.8,0-4.5,3.4-4.5,5.5c0,1.9,1.2,3.2,3.2,3.4L385.9,42.1"/>
	<path class="st1" d="M201,11.6c0,6.5-4.1,9.4-10.5,9.4c-4,0-10.1-1.3-10.1-9.4V6.4h7.7v6c0,1.1,0.9,2.3,2.3,2.3
		c0.8,0,2.5-0.5,2.5-2.3V-15h8V11.6"/>
	<path class="st1" d="M205.6-0.4c0-3.3,1.7-8.1,9.2-8.1c7.5,0,9.2,4.7,9.2,8.1v13.3c0,3.3-1.7,8.1-9.2,8.1c-7.5,0-9.2-4.7-9.2-8.1
		V-0.4 M213.1,13.4c0,1,0,2.3,1.7,2.3c1.7,0,1.7-1.3,1.7-2.3V-1c0-1,0-2.3-1.7-2.3c-1.7,0-1.7,1.3-1.7,2.3V13.4z"/>
	<path class="st1" d="M247.7,20.4h-7.2v-3.1h-0.1c-1.3,2.4-2.8,3.7-5.7,3.7c-3.6,0-5.3-2.7-5.3-6.1V-7.9h7.5v19.4c0,1,0,2.7,1.7,2.7
		c1.7,0,1.7-2,1.7-2.7V-7.9h7.5V20.4"/>
	<path class="st1" d="M253.6-7.9h7.1v5h0.1c1-2.6,2-5.6,5.3-5.6v9.2h-1.7c-2.6,0-3.3,1.6-3.3,3.6v16.1h-7.5V-7.9"/>
	<path class="st1" d="M271-7.9h7.2v3.1h0.1c1.3-2.4,2.8-3.7,5.7-3.7c3.6,0,5.3,2.7,5.3,6.1v22.8h-7.5V1c0-1,0-2.7-1.7-2.7
		c-1.7,0-1.7,2-1.7,2.7v19.4H271V-7.9"/>
	<path class="st1" d="M313.2,20.4h-6.9v-2.2h-0.1c-1.1,1.7-3.2,2.7-5.3,2.7c-5.5,0-6.1-4.1-6.1-8.6c0-5.3,2.9-7.1,5.6-8.3
		c2.8-1.2,5.5-1.9,5.5-4.9c0-1.5-0.3-2.3-1.7-2.3c-1.3,0-1.9,0.8-1.9,2V1h-7v-2.6c0-4.2,3.7-6.9,8.8-6.9c6.7,0,9,2.7,9,8.9V20.4
		 M306,6.2l-2.1,1.6c-0.9,0.7-1.3,1.4-1.3,2.5V14c0,1.6,0.6,2.3,1.7,2.3c1.2,0,1.7-1.1,1.7-2.5V6.2z"/>
	<rect x="318.4" y="-15" class="st1" width="7.5" height="35.4"/>
	<path class="st1" d="M336.2-0.4c0-3.3,1.7-8.1,9.2-8.1c7.5,0,9.2,4.7,9.2,8.1v13.3c0,3.3-1.7,8.1-9.2,8.1c-7.5,0-9.2-4.7-9.2-8.1
		V-0.4 M343.7,13.4c0,1,0,2.3,1.7,2.3c1.7,0,1.7-1.3,1.7-2.3V-1c0-1,0-2.3-1.7-2.3c-1.7,0-1.7,1.3-1.7,2.3V13.4z"/>
	<path class="st1" d="M359.2-7.6h1.8v-2c0-5.1,2.9-5.4,6.5-5.4h2.8v5h-0.7c-1.1,0-1.4,0.5-1.4,1.4v1h2.1v5.5h-1.9v22.5H361V-2.1
		h-1.8V-7.6"/>
	<path class="st1" d="M186.9-54h10.6l6.5,35.4h-8.4l-0.7-6.3h-5.6l-0.8,6.3h-8L186.9-54 M190.1-31.2h4l-1.9-17.3h-0.1L190.1-31.2z"
		/>
	<path class="st1" d="M208.8-46.9h7.2v3.5h0.1c1.4-2.6,2.8-4.1,5.8-4.1c2.4,0,4.6,1.1,5.2,4.1c1.4-2.6,2.5-4.1,6-4.1
		c3.6,0,5.5,2.6,5.5,6.1v22.8h-7.5v-19c0-1,0-3.1-1.8-3.1c-1.8,0-1.8,2.4-1.8,3.1v19H220v-19c0-1,0-3.1-1.8-3.1
		c-1.8,0-1.8,2.4-1.8,3.1v19h-7.5V-46.9"/>
	<path class="st1" d="M244.8-39.4c0-3.3,1.7-8.1,9.2-8.1c7.5,0,9.2,4.7,9.2,8.1v7.8h-10.9v6.1c0,1,0,2.3,1.7,2.3
		c1.7,0,1.7-1.3,1.7-2.3v-3.5h7.5v3c0,3.3-1.7,8.1-9.2,8.1c-7.5,0-9.2-4.7-9.2-8.1V-39.4 M252.3-36.9h3.4V-40c0-1,0-2.3-1.7-2.3
		c-1.7,0-1.7,1.3-1.7,2.3V-36.9z"/>
	<path class="st1" d="M269-46.9h7.1v5h0.1c1-2.6,2-5.6,5.3-5.6v9.2h-1.7c-2.6,0-3.3,1.6-3.3,3.6v16.1H269V-46.9"/>
	<path class="st1" d="M286.6-54h7.5v5.2h-7.5V-54z M286.6-46.9h7.5v28.3h-7.5V-46.9z"/>
	<path class="st1" d="M300.6-39.4c0-3.3,1.7-8.1,9.2-8.1s9.2,4.7,9.2,8.1v3h-7.5V-40c0-1,0-2.3-1.7-2.3c-1.7,0-1.7,1.3-1.7,2.3v14.4
		c0,1,0,2.3,1.7,2.3c1.7,0,1.7-1.3,1.7-2.3v-5.1h7.5v4.6c0,3.3-1.7,8.1-9.2,8.1s-9.2-4.7-9.2-8.1V-39.4"/>
	<path class="st1" d="M343.2-18.6h-6.9v-2.2h-0.1c-1.1,1.7-3.2,2.7-5.3,2.7c-5.5,0-6.1-4.1-6.1-8.6c0-5.3,2.9-7.1,5.7-8.3
		c2.8-1.2,5.5-1.9,5.5-4.9c0-1.5-0.3-2.3-1.7-2.3c-1.3,0-1.9,0.8-1.9,2v2.3h-7v-2.6c0-4.2,3.6-6.9,8.8-6.9c6.7,0,9,2.7,9,8.9V-18.6
		 M336-32.8l-2.1,1.6c-0.9,0.7-1.3,1.4-1.3,2.5v3.8c0,1.6,0.6,2.3,1.7,2.3c1.2,0,1.7-1.1,1.7-2.5V-32.8z"/>
	<path class="st1" d="M351.6-46.9h7.2v3.1h0.1c1.3-2.4,2.8-3.7,5.7-3.7c3.6,0,5.3,2.7,5.3,6.1v22.8h-7.5V-38c0-1,0-2.7-1.7-2.7
		c-1.7,0-1.7,2-1.7,2.7v19.4h-7.5V-46.9"/>
	<path class="st1" d="M-155.9-46.1c1.9-5.2,2.5-6.1,3.4-6.1c0.9,0,1.6,0.8,3.4,5.6c2.3,5.9,26.8,70.4,36.4,94.1
		c5.6,13.9,10.1,16.4,13.4,17.3c2.3,0.8,4.7,0.9,6.2,0.9c0.9,0,1.6,0.2,1.6,0.9c0,0.9-1.4,1.2-3.1,1.2c-2.3,0-13.7,0-24.5-0.3
		c-3-0.2-4.7-0.2-4.7-1.1c0-0.6,0.5-0.9,1.1-1.1c0.9-0.3,1.9-1.7,0.9-4.2l-14.5-38.4c-0.3-0.6-0.6-0.9-1.4-0.9h-33.6
		c-0.8,0-1.2,0.5-1.6,1.2l-9.4,27.6c-1.4,3.9-2.2,7.6-2.2,10.5c0,3.1,3.3,4.5,5.9,4.5h1.6c1.1,0,1.6,0.3,1.6,0.9
		c0,0.9-0.9,1.2-2.3,1.2c-3.7,0-10.5-0.5-12.2-0.5c-1.7,0-10.3,0.5-17.6,0.5c-2,0-3-0.3-3-1.2c0-0.6,0.6-0.9,1.4-0.9
		c1.1,0,3.3-0.2,4.5-0.3c7.2-0.9,10.3-6.9,13.1-14.7L-155.9-46.1 M-139.6,16.3c0.8,0,0.8-0.5,0.6-1.1l-14.8-42.1
		c-0.8-2.3-1.6-2.3-2.3,0l-13.7,42.1c-0.3,0.8,0,1.1,0.5,1.1H-139.6z"/>
	<path class="st1" d="M-85.6,30.4c0,25.3,0,35-4.7,46c-3.3,7.8-10.1,15.1-22.8,23.9c-2,1.4-4.5,3.1-6.1,3.9
		c-0.3,0.2-0.6,0.3-1.1,0.3c-0.5,0-1.1-0.3-1.1-0.9c0-0.9,0.8-1.4,2.2-2.3c1.9-1.1,4.1-3,5.5-4.4c10.1-10.3,15-18.6,15-58.8V-7.1
		c0-24.3,0-28.7-0.3-33.7c-0.3-5.3-1.6-7.8-6.7-8.9c-1.2-0.3-3.9-0.5-5.3-0.5c-0.6,0-1.2-0.3-1.2-0.9c0-0.9,0.8-1.2,2.5-1.2
		c7,0,16.9,0.5,17.6,0.5c0.8,0,10.6-0.5,15.3-0.5c1.7,0,2.5,0.3,2.5,1.2c0,0.6-0.6,0.9-1.2,0.9c-1.1,0-2,0.2-3.9,0.5
		c-4.2,0.8-5.5,3.4-5.8,8.9c-0.3,5-0.3,9.4-0.3,33.7V30.4"/>
	<path class="st1" d="M-15-54.5c35.1,0,61.3,22.2,61.3,58.5c0,35-24.7,63.8-62.3,63.8c-42.8,0-60.6-33.2-60.6-61.3
		C-76.5-18.8-58.1-54.5-15-54.5 M-11.7,61.9c14,0,43.1-8.1,43.1-53.5c0-37.5-22.8-57.6-47.4-57.6c-26.1,0-45.6,17.2-45.6,51.4
		C-61.7,38.5-39.8,61.9-11.7,61.9z"/>
	<path class="st1" d="M144.6,25.9c0-12.6-0.8-14.4-7-16.1c-1.2-0.3-3.9-0.5-5.3-0.5c-0.6,0-1.3-0.3-1.3-0.9c0-0.9,0.8-1.2,2.5-1.2
		c7,0,16.9,0.5,17.6,0.5c0.8,0,10.6-0.5,15.3-0.5c1.7,0,2.5,0.3,2.5,1.2c0,0.6-0.6,0.9-1.2,0.9c-1.1,0-2,0.2-3.9,0.5
		c-4.2,0.8-5.5,3.4-5.8,8.9c-0.3,5-0.3,9.7-0.3,16.2v17.5c0,7-0.2,7.3-2,8.4c-10,5.3-24,7-33.1,7c-11.9,0-34-1.6-51.3-16.7
		c-9.5-8.3-18.6-25-18.6-44.5c0-25,12.2-42.6,26.1-51.4c14-8.7,29.5-9.8,41.5-9.8c9.8,0,20.9,2,23.9,2.7c3.3,0.8,8.7,1.4,12.6,1.6
		c1.6,0.2,1.9,0.8,1.9,1.4c0,2.2-1.1,6.6-1.1,22.2c0,2.5-0.3,3.3-1.4,3.3c-0.8,0-0.9-0.9-1.1-2.3c-0.2-2.2-0.9-6.6-3.3-10.3
		c-3.9-5.9-16.5-12.6-36.7-12.6c-9.8,0-21.5,0.9-33.4,10.3c-9.1,7.2-15.5,21.4-15.5,39.6c0,22,11.1,37.9,16.5,43.2
		c12.3,12,26.5,16.7,40.9,16.7c5.6,0,13.7-0.9,17.8-3.3c2-1.1,3.1-2.8,3.1-5.5V25.9"/>
</g>
<g id="Layer_1_copy">
	<g>
		<path class="st2" d="M122.9,40.3c0-2.2,1.4-3.2,3.2-3.2c1.7,0,3.2,0.6,3.2,2.7V41h-2.4v-1.1c0-0.6-0.2-0.9-0.8-0.9
			c-0.7,0-0.8,0.7-0.8,1v5.5c0,0.3,0,1,0.7,1c0.6,0,0.8-0.3,0.8-0.8v-1.4H126v-2.1h3.3v6.1h-2.2v-0.9h0c-0.5,0.8-1.1,1.1-1.9,1.1
			c-1.8,0-2.3-1.5-2.3-3.2V40.3"/>
		<path class="st2" d="M131.2,48.3h0.5c0.2,0,0.4-0.1,0.4-0.3c0-0.2-0.1-0.6-0.2-1l-1.4-7.5h2.4l0.6,6.3h0l0.6-6.3h2.3l-1.5,8.2
			c-0.2,0.8-0.4,1.4-0.7,1.8c-0.4,0.4-0.9,0.6-1.9,0.6h-1.1V48.3"/>
		<path class="st2" d="M137.6,39.5h2.3v1h0c0.4-0.8,0.9-1.2,1.8-1.2c1.1,0,1.7,0.8,1.7,1.9v7.2H141v-6.1c0-0.3,0-0.9-0.5-0.9
			c-0.5,0-0.5,0.6-0.5,0.9v6.1h-2.4V39.5"/>
		<path class="st2" d="M144.7,41.8c0-1,0.5-2.5,2.9-2.5c2.3,0,2.9,1.5,2.9,2.5v2.5H147v1.9c0,0.3,0,0.7,0.5,0.7
			c0.5,0,0.5-0.4,0.5-0.7v-1.1h2.3V46c0,1-0.5,2.5-2.9,2.5c-2.3,0-2.9-1.5-2.9-2.5V41.8 M147,42.6h1.1v-1c0-0.3,0-0.7-0.5-0.7
			c-0.5,0-0.5,0.4-0.5,0.7V42.6z"/>
		<path class="st2" d="M151.8,41.8c0-1,0.5-2.5,2.9-2.5c2.4,0,2.9,1.5,2.9,2.5v0.9h-2.3v-1.1c0-0.3,0-0.7-0.5-0.7
			c-0.5,0-0.5,0.4-0.5,0.7v4.5c0,0.3,0,0.7,0.5,0.7c0.5,0,0.5-0.4,0.5-0.7v-1.6h2.3V46c0,1-0.5,2.5-2.9,2.5c-2.3,0-2.9-1.5-2.9-2.5
			V41.8"/>
		<path class="st2" d="M158.9,41.8c0-1,0.5-2.5,2.9-2.5c2.4,0,2.9,1.5,2.9,2.5V46c0,1-0.5,2.5-2.9,2.5c-2.3,0-2.9-1.5-2.9-2.5V41.8
			 M161.3,46.2c0,0.3,0,0.7,0.5,0.7c0.5,0,0.5-0.4,0.5-0.7v-4.5c0-0.3,0-0.7-0.5-0.7c-0.5,0-0.5,0.4-0.5,0.7V46.2z"/>
		<rect x="166.2" y="37.2" class="st2" width="2.3" height="11.1"/>
		<path class="st2" d="M170,41.8c0-1,0.5-2.5,2.9-2.5c2.4,0,2.9,1.5,2.9,2.5V46c0,1-0.5,2.5-2.9,2.5c-2.3,0-2.9-1.5-2.9-2.5V41.8
			 M172.3,46.2c0,0.3,0,0.7,0.5,0.7c0.5,0,0.5-0.4,0.5-0.7v-4.5c0-0.3,0-0.7-0.5-0.7c-0.5,0-0.5,0.4-0.5,0.7V46.2z"/>
		<path class="st2" d="M182.8,47.3c0,2-0.9,2.7-2.9,2.7c-1.3,0-2.6-0.4-2.8-1.9h2.3c0,0.2,0.1,0.4,0.1,0.5c0.1,0.1,0.2,0.1,0.4,0.1
			c0.3,0,0.5-0.2,0.5-0.6v-1.6l0,0c-0.2,0.7-0.9,1.1-1.6,1.1c-1,0-1.8-0.8-1.8-2.1v-3.3c0-1.4,0.2-2.8,1.9-2.8
			c0.8,0,1.3,0.4,1.6,1.2h0v-1h2.3V47.3 M179.4,45.1c0,0.5,0.2,0.7,0.5,0.7c0.6,0,0.6-1,0.6-1.3v-2.3c0-0.8-0.3-1.1-0.6-1.1
			c-0.2,0-0.5,0.1-0.5,0.7V45.1z"/>
		<path class="st2" d="M184.6,48.3h0.5c0.2,0,0.4-0.1,0.4-0.3c0-0.2-0.1-0.6-0.2-1l-1.4-7.5h2.4l0.6,6.3h0l0.6-6.3h2.3l-1.5,8.2
			c-0.2,0.8-0.4,1.4-0.7,1.8c-0.4,0.4-0.9,0.6-1.9,0.6h-1.1V48.3"/>
		<path class="st2" d="M122.8,27.7c0-2.2,1.4-3.2,3.2-3.2c1.9,0,3.2,1,3.2,3.2v5.1c0,2-1.2,3.2-3.2,3.2c-2,0-3.2-1.2-3.2-3.2V27.7
			 M125.4,33c0,0.3,0,1,0.7,1s0.7-0.7,0.7-1v-5.5c0-0.4,0-1-0.7-1s-0.7,0.6-0.7,1V33z"/>
		<path class="st2" d="M130.8,24.7h2.3v3h0c0.4-0.7,0.8-1,1.7-1c1.1,0,1.7,0.8,1.7,2.3v4.3c0,1.7-0.6,2.7-1.7,2.7
			c-0.8,0-1.4-0.4-1.6-1.1h0v0.9h-2.3V24.7 M133.2,32.8c0,0.6,0,1.5,0.6,1.5c0.2,0,0.5-0.1,0.5-0.6v-4.5c0-0.4-0.2-0.5-0.5-0.5
			c-0.5,0-0.6,0.6-0.6,1.1V32.8z"/>
		<path class="st2" d="M137.9,33h2.1v0.5c0,0.3,0.1,0.8,0.6,0.8c0.4,0,0.5-0.3,0.5-0.7c0-0.7-0.8-1.2-1.6-1.8
			c-0.8-0.6-1.6-1.3-1.6-2.6c0-1.7,1.1-2.6,2.6-2.6c1.6,0,2.6,0.7,2.6,2.3v0.5h-2.1v-0.5c0-0.2,0-0.7-0.5-0.7
			c-0.3,0-0.5,0.2-0.5,0.6c0,0.7,0.9,1.1,1.6,1.8c0.8,0.6,1.6,1.3,1.6,2.6c0,0.7-0.1,2.6-2.7,2.6c-2.1,0-2.7-0.9-2.7-2.4V33"/>
		<path class="st2" d="M145.1,28.8h-0.6V27h0.6v-1.9h2.3V27h0.6v1.7h-0.6v4.8c0,0.2,0,0.7,0.3,0.7h0.3V36h-1.1c-1,0-1.8-0.2-1.8-1.6
			V28.8"/>
		<path class="st2" d="M149.4,29.3c0-1,0.5-2.5,2.9-2.5c2.3,0,2.9,1.5,2.9,2.5v2.5h-3.4v1.9c0,0.3,0,0.7,0.5,0.7
			c0.5,0,0.5-0.4,0.5-0.7v-1.1h2.3v0.9c0,1-0.5,2.5-2.9,2.5c-2.4,0-2.9-1.5-2.9-2.5V29.3 M151.7,30.1h1.1v-1c0-0.3,0-0.7-0.5-0.7
			c-0.5,0-0.5,0.4-0.5,0.7V30.1z"/>
		<path class="st2" d="M157.1,28.8h-0.6V27h0.6v-1.9h2.3V27h0.6v1.7h-0.6v4.8c0,0.2,0,0.7,0.3,0.7h0.3V36h-1.1c-1,0-1.8-0.2-1.8-1.6
			V28.8"/>
		<path class="st2" d="M161.6,26.9h2.2v1.6h0c0.3-0.8,0.6-1.8,1.7-1.8v2.9H165c-0.8,0-1,0.5-1,1.1v5.1h-2.4V26.9"/>
		<path class="st2" d="M167,24.7h2.3v1.6H167V24.7z M167,26.9h2.3v8.9H167V26.9z"/>
		<path class="st2" d="M170.9,29.3c0-1,0.5-2.5,2.9-2.5c2.3,0,2.9,1.5,2.9,2.5v0.9h-2.4v-1.1c0-0.3,0-0.7-0.5-0.7s-0.5,0.4-0.5,0.7
			v4.5c0,0.3,0,0.7,0.5,0.7s0.5-0.4,0.5-0.7V32h2.4v1.4c0,1-0.5,2.5-2.9,2.5c-2.4,0-2.9-1.5-2.9-2.5V29.3"/>
		<path class="st2" d="M177.9,33h2.1v0.5c0,0.3,0.1,0.8,0.6,0.8c0.4,0,0.5-0.3,0.5-0.7c0-0.7-0.8-1.2-1.6-1.8
			c-0.8-0.6-1.6-1.3-1.6-2.6c0-1.7,1.1-2.6,2.6-2.6c1.6,0,2.6,0.7,2.6,2.3v0.5h-2.1v-0.5c0-0.2,0-0.7-0.5-0.7
			c-0.3,0-0.5,0.2-0.5,0.6c0,0.7,0.9,1.1,1.6,1.8c0.8,0.6,1.6,1.3,1.6,2.6c0,0.7-0.1,2.6-2.7,2.6c-2.1,0-2.7-0.9-2.7-2.4V33"/>
		<path class="st2" d="M187.4,30.4c-0.1,0-0.1,0-0.2,0c-0.5,0-1.2,0.3-1.5,0.7c-0.4,0.6-0.5,1.1-0.5,1.6c0,1.3,0.9,2.6,2.6,2.6
			c0.9,0,1.8-0.4,2.3-1.1c0.2-0.3,0.5-0.9,0.5-1.7c0-1-0.6-1.8-1.4-1.8c-0.6,0-1,0.4-1,0.9c0,0.8,0.8,0.3,0.8,1.2
			c0,0.3-0.2,0.5-0.4,0.5c-0.4,0-0.8-0.6-0.8-1.4c0-1.1,0.7-1.9,1.5-1.9c1.1,0,1.9,1.2,2.6,1.2c0.3,0,0.5-0.3,0.5-0.8
			c0-0.7-0.8-0.2-0.8-0.9c0-0.3,0.2-0.5,0.4-0.5c0.4,0,0.7,0.6,0.7,1.3c0,0.9-0.5,1.7-1.1,1.7c-0.3,0-0.7-0.2-1-0.5l0,0
			c0.2,0.4,0.2,0.7,0.2,1.2c0,0.8-0.2,1.4-0.6,1.9c-0.8,1.1-1.7,1.4-2.7,1.4c-1.4,0-2.1-0.4-2.6-1.1c-0.5-0.6-0.6-1.4-0.6-1.9
			c0-1.2,0.6-2.2,1.7-2.7c-0.3-0.3-0.4-0.6-0.4-1.1c0-1,0.9-2.3,2.2-2.3c0.9,0,1.6,0.5,1.6,1.2c0,0.3-0.2,0.6-0.4,0.6
			c-0.7,0-0.1-1.4-1.2-1.4c-0.9,0-1.4,1.1-1.4,1.7c0,0.6,0.4,1,1,1.1L187.4,30.4"/>
		<path class="st2" d="M129.3,20.8c0,2-1.3,3-3.3,3c-1.3,0-3.2-0.4-3.2-3v-1.6h2.4V21c0,0.3,0.3,0.7,0.7,0.7c0.3,0,0.8-0.2,0.8-0.7
			v-8.6h2.5V20.8"/>
		<path class="st2" d="M130.8,17c0-1,0.5-2.5,2.9-2.5s2.9,1.5,2.9,2.5v4.2c0,1-0.5,2.5-2.9,2.5s-2.9-1.5-2.9-2.5V17 M133.1,21.4
			c0,0.3,0,0.7,0.5,0.7c0.5,0,0.5-0.4,0.5-0.7v-4.5c0-0.3,0-0.7-0.5-0.7c-0.5,0-0.5,0.4-0.5,0.7V21.4z"/>
		<path class="st2" d="M144,23.6h-2.3v-1h0c-0.4,0.8-0.9,1.2-1.8,1.2c-1.1,0-1.7-0.8-1.7-1.9v-7.2h2.3v6.1c0,0.3,0,0.8,0.5,0.8
			c0.5,0,0.5-0.6,0.5-0.8v-6.1h2.4V23.6"/>
		<path class="st2" d="M145.8,14.7h2.2v1.6h0c0.3-0.8,0.6-1.8,1.7-1.8v2.9h-0.5c-0.8,0-1,0.5-1,1.1v5.1h-2.4V14.7"/>
		<path class="st2" d="M151.3,14.7h2.3v1h0c0.4-0.8,0.9-1.2,1.8-1.2c1.1,0,1.7,0.8,1.7,1.9v7.2h-2.4v-6.1c0-0.3,0-0.8-0.5-0.8
			c-0.5,0-0.5,0.6-0.5,0.8v6.1h-2.3V14.7"/>
		<path class="st2" d="M164.6,23.6h-2.2v-0.7h0c-0.4,0.5-1,0.9-1.7,0.9c-1.7,0-1.9-1.3-1.9-2.7c0-1.7,0.9-2.2,1.8-2.6
			c0.9-0.4,1.7-0.6,1.7-1.5c0-0.5-0.1-0.7-0.5-0.7c-0.4,0-0.6,0.2-0.6,0.6v0.7H159v-0.8c0-1.3,1.1-2.2,2.8-2.2
			c2.1,0,2.8,0.9,2.8,2.8V23.6 M162.3,19.1l-0.7,0.5c-0.3,0.2-0.4,0.4-0.4,0.8v1.2c0,0.5,0.2,0.7,0.5,0.7c0.4,0,0.5-0.3,0.5-0.8
			V19.1z"/>
		<rect x="166.2" y="12.4" class="st2" width="2.4" height="11.1"/>
		<path class="st2" d="M171.8,17c0-1,0.5-2.5,2.9-2.5c2.4,0,2.9,1.5,2.9,2.5v4.2c0,1-0.5,2.5-2.9,2.5c-2.3,0-2.9-1.5-2.9-2.5V17
			 M174.2,21.4c0,0.3,0,0.7,0.5,0.7c0.5,0,0.5-0.4,0.5-0.7v-4.5c0-0.3,0-0.7-0.5-0.7c-0.5,0-0.5,0.4-0.5,0.7V21.4z"/>
		<path class="st2" d="M179,14.7h0.6v-0.6c0-1.6,0.9-1.7,2-1.7h0.9V14h-0.2c-0.4,0-0.4,0.2-0.4,0.4v0.3h0.7v1.7H182v7.1h-2.4v-7.1
			H179V14.7"/>
		<path class="st2" d="M124.9,0.2h3.3l2,11.1h-2.6l-0.2-2h-1.8l-0.3,2h-2.5L124.9,0.2 M125.9,7.3h1.3l-0.6-5.4h0L125.9,7.3z"/>
		<path class="st2" d="M131.8,2.4h2.3v1.1h0c0.4-0.8,0.9-1.3,1.8-1.3c0.8,0,1.4,0.3,1.6,1.3c0.5-0.8,0.8-1.3,1.9-1.3
			c1.1,0,1.7,0.8,1.7,1.9v7.2h-2.3v-6c0-0.3,0-1-0.6-1c-0.6,0-0.6,0.8-0.6,1v6h-2.4v-6c0-0.3,0-1-0.6-1c-0.6,0-0.6,0.8-0.6,1v6h-2.4
			V2.4"/>
		<path class="st2" d="M143.1,4.7c0-1,0.5-2.5,2.9-2.5c2.4,0,2.9,1.5,2.9,2.5v2.5h-3.4v1.9c0,0.3,0,0.7,0.5,0.7
			c0.5,0,0.5-0.4,0.5-0.7V8h2.4v0.9c0,1-0.5,2.5-2.9,2.5c-2.4,0-2.9-1.5-2.9-2.5V4.7 M145.4,5.6h1.1v-1c0-0.3,0-0.7-0.5-0.7
			c-0.5,0-0.5,0.4-0.5,0.7V5.6z"/>
		<path class="st2" d="M150.7,2.4h2.2V4h0c0.3-0.8,0.6-1.8,1.7-1.8v2.9h-0.5c-0.8,0-1,0.5-1,1.1v5.1h-2.3V2.4"/>
		<path class="st2" d="M156.2,0.2h2.4v1.6h-2.4V0.2z M156.2,2.4h2.4v8.9h-2.4V2.4z"/>
		<path class="st2" d="M160.6,4.7c0-1,0.5-2.5,2.9-2.5c2.3,0,2.9,1.5,2.9,2.5v0.9H164V4.6c0-0.3,0-0.7-0.5-0.7
			c-0.5,0-0.5,0.4-0.5,0.7v4.5c0,0.3,0,0.7,0.5,0.7c0.5,0,0.5-0.4,0.5-0.7V7.5h2.4v1.4c0,1-0.5,2.5-2.9,2.5c-2.3,0-2.9-1.5-2.9-2.5
			V4.7"/>
		<path class="st2" d="M174,11.3h-2.2v-0.7h0c-0.4,0.5-1,0.9-1.7,0.9c-1.7,0-1.9-1.3-1.9-2.7c0-1.7,0.9-2.2,1.8-2.6
			c0.9-0.4,1.7-0.6,1.7-1.5c0-0.5-0.1-0.7-0.5-0.7c-0.4,0-0.6,0.2-0.6,0.6v0.7h-2.2V4.4c0-1.3,1.1-2.2,2.8-2.2
			c2.1,0,2.8,0.9,2.8,2.8V11.3 M171.7,6.8l-0.7,0.5c-0.3,0.2-0.4,0.4-0.4,0.8v1.2c0,0.5,0.2,0.7,0.5,0.7c0.4,0,0.5-0.3,0.5-0.8V6.8z
			"/>
		<path class="st2" d="M176.6,2.4h2.3v1h0c0.4-0.8,0.9-1.2,1.8-1.2c1.1,0,1.7,0.8,1.7,1.9v7.2h-2.4V5.2c0-0.3,0-0.9-0.5-0.9
			C179,4.4,179,5,179,5.2v6.1h-2.4V2.4"/>
		<path class="st2" d="M17.1,2.6c0.6-1.6,0.8-1.9,1.1-1.9c0.3,0,0.5,0.2,1.1,1.8c0.7,1.9,8.4,22.1,11.4,29.6
			c1.8,4.4,3.2,5.2,4.2,5.4c0.7,0.2,1.5,0.3,2,0.3c0.3,0,0.5,0,0.5,0.3c0,0.3-0.4,0.4-1,0.4c-0.7,0-4.3,0-7.7-0.1
			c-0.9,0-1.5,0-1.5-0.3c0-0.2,0.1-0.3,0.3-0.3c0.3-0.1,0.6-0.5,0.3-1.3l-4.6-12.1c-0.1-0.2-0.2-0.3-0.4-0.3H12.3
			c-0.2,0-0.4,0.1-0.5,0.4l-2.9,8.7c-0.4,1.2-0.7,2.4-0.7,3.3c0,1,1,1.4,1.9,1.4h0.5c0.3,0,0.5,0.1,0.5,0.3c0,0.3-0.3,0.4-0.7,0.4
			c-1.2,0-3.3-0.1-3.8-0.1c-0.5,0-3.2,0.1-5.5,0.1c-0.6,0-0.9-0.1-0.9-0.4c0-0.2,0.2-0.3,0.4-0.3c0.3,0,1,0,1.4-0.1
			c2.3-0.3,3.2-2.2,4.1-4.6L17.1,2.6 M22.2,22.3c0.2,0,0.2-0.1,0.2-0.3L17.8,8.7c-0.2-0.7-0.5-0.7-0.7,0l-4.3,13.2
			c-0.1,0.2,0,0.3,0.1,0.3H22.2z"/>
		<path class="st2" d="M39.2,26.7c0,7.9,0,11-1.5,14.5c-1,2.5-3.2,4.8-7.2,7.5c-0.6,0.4-1.4,1-1.9,1.2c-0.1,0-0.2,0.1-0.3,0.1
			c-0.1,0-0.3-0.1-0.3-0.3c0-0.3,0.2-0.4,0.7-0.7c0.6-0.3,1.3-0.9,1.7-1.4c3.2-3.2,4.7-5.8,4.7-18.5V14.9c0-7.7,0-9-0.1-10.6
			c-0.1-1.7-0.5-2.5-2.1-2.8c-0.4-0.1-1.2-0.1-1.7-0.1c-0.2,0-0.4-0.1-0.4-0.3c0-0.3,0.2-0.4,0.8-0.4c2.2,0,5.3,0.1,5.5,0.1
			c0.2,0,3.3-0.1,4.8-0.1c0.5,0,0.8,0.1,0.8,0.4c0,0.2-0.2,0.3-0.4,0.3c-0.3,0-0.6,0-1.2,0.1c-1.3,0.2-1.7,1.1-1.8,2.8
			c-0.1,1.6-0.1,2.9-0.1,10.6V26.7"/>
		<path class="st2" d="M61.4,0c11,0,19.3,7,19.3,18.4c0,11-7.8,20.1-19.6,20.1c-13.4,0-19-10.5-19-19.3C42.1,11.2,47.9,0,61.4,0
			 M62.4,36.6c4.4,0,13.5-2.6,13.5-16.8C76,8,68.8,1.7,61.1,1.7c-8.2,0-14.3,5.4-14.3,16.1C46.7,29.2,53.6,36.6,62.4,36.6z"/>
		<path class="st2" d="M111.6,25.3c0-4-0.2-4.5-2.2-5.1c-0.4-0.1-1.2-0.1-1.7-0.1c-0.2,0-0.4-0.1-0.4-0.3c0-0.3,0.2-0.4,0.8-0.4
			c2.2,0,5.3,0.1,5.5,0.1s3.3-0.1,4.8-0.1c0.5,0,0.8,0.1,0.8,0.4c0,0.2-0.2,0.3-0.4,0.3c-0.3,0-0.6,0-1.2,0.1
			c-1.3,0.2-1.7,1.1-1.8,2.8c-0.1,1.6-0.1,3-0.1,5.1v5.5c0,2.2,0,2.3-0.6,2.6c-3.1,1.7-7.6,2.2-10.4,2.2c-3.7,0-10.7-0.5-16.1-5.3
			c-3-2.6-5.8-7.9-5.8-14c0-7.9,3.8-13.4,8.2-16.1c4.4-2.7,9.3-3.1,13.1-3.1c3.1,0,6.6,0.6,7.5,0.8c1,0.2,2.7,0.4,4,0.5
			c0.5,0,0.6,0.2,0.6,0.4c0,0.7-0.3,2.1-0.3,7c0,0.8-0.1,1-0.4,1c-0.2,0-0.3-0.3-0.3-0.7c0-0.7-0.3-2.1-1-3.2c-1.2-1.9-5.2-4-11.5-4
			c-3.1,0-6.8,0.3-10.5,3.2c-2.8,2.3-4.9,6.7-4.9,12.5c0,6.9,3.5,11.9,5.2,13.6c3.9,3.8,8.3,5.2,12.9,5.2c1.8,0,4.3-0.3,5.6-1
			c0.6-0.3,1-0.9,1-1.7V25.3"/>
	</g>
</g>
</svg>
